<svg width="49" height="49" viewBox="0 0 49 49" fill="none" xmlns="http://www.w3.org/2000/svg">
<path d="M14.3038 4.93029C14.4272 5.04285 14.5506 5.16668 14.674 5.27924C15.2461 5.79704 15.8295 6.29233 16.4464 6.76511C16.5362 6.83265 16.6259 6.90018 16.7269 6.96772C17.299 7.39547 17.8935 7.78945 18.5105 8.17218C18.6339 8.25097 18.7461 8.32977 18.8695 8.39731C19.5313 8.79129 20.2268 9.16275 20.9336 9.5117C20.9897 9.54547 21.057 9.56799 21.1131 9.60176C21.1467 9.55673 21.1916 9.50045 21.2252 9.45542C21.6964 8.8138 22.1339 8.16092 22.5377 7.49678C22.605 7.37296 22.6723 7.26039 22.7509 7.13657C23.1098 6.51746 23.4576 5.87584 23.7605 5.23422C23.8053 5.13291 23.8614 5.0316 23.9175 4.93029C24.2428 4.23238 24.5345 3.51196 24.7925 2.79154C24.8486 2.63395 24.9047 2.4651 24.9608 2.30751C25.2076 1.56458 25.4432 0.821646 25.6114 0.0674569C25.6114 0.0562003 25.6114 0.0562003 25.6114 0.0449438C21.1018 -0.112648 16.6035 1.00175 12.666 3.27557L12.6772 3.28683C13.182 3.8384 13.7317 4.38997 14.3038 4.93029Z" fill="#1AB67E"/>
<path d="M3.7471 26.2734C4.47626 26.3522 5.21664 26.4535 5.9458 26.5998C6.0692 26.6223 6.19259 26.6448 6.32721 26.6673C7.14611 26.8362 7.9538 27.0388 8.75026 27.2752C8.94097 27.3315 9.13167 27.3878 9.32237 27.4553C10.0964 27.7029 10.8704 27.9731 11.6333 28.277C11.6557 28.2883 11.6781 28.2883 11.7006 28.2995C11.723 28.0857 11.7679 27.8831 11.7791 27.6692C11.8015 27.4666 11.8127 27.2527 11.824 27.0501C11.88 26.2283 11.9137 25.4066 11.9025 24.6074C11.8913 23.8082 11.824 22.9865 11.7342 22.176C11.7118 21.9621 11.6893 21.7595 11.6557 21.5456C11.6333 21.343 11.5772 21.1291 11.5435 20.9265C11.5099 20.9378 11.4874 20.949 11.4538 20.9603C10.7134 21.298 9.95057 21.6019 9.18776 21.8721C8.99706 21.9396 8.81757 22.0071 8.62687 22.0747C7.8304 22.3448 7.02271 22.5812 6.21503 22.7838C6.11407 22.8064 6.00189 22.8176 5.90093 22.8514C5.14933 23.0202 4.40895 23.1666 3.64614 23.2791C3.47787 23.3016 3.3096 23.3354 3.15255 23.3579C2.32243 23.4705 1.50353 23.538 0.67341 23.5718C0.617321 23.5718 0.572449 23.5831 0.51636 23.5831C0.493925 24.4273 0.505142 25.2603 0.572449 26.1045C0.628539 26.1045 0.684628 26.1158 0.740717 26.1158C1.55962 26.1158 2.37852 26.1495 3.19743 26.2283C3.37691 26.2283 3.5564 26.2509 3.7471 26.2734Z" fill="#1AB67E"/>
<path d="M8.8749 30.3031C8.74028 30.2581 8.60567 30.2243 8.45983 30.1793C7.77554 29.9654 7.09125 29.7741 6.40696 29.6165C6.29479 29.594 6.18261 29.5602 6.07043 29.5377C5.31883 29.3801 4.55602 29.2563 3.80442 29.1662C3.63615 29.1437 3.46788 29.1324 3.2884 29.1099C2.51436 29.0311 1.75155 28.9749 0.977514 28.9749C0.966296 28.9749 0.966296 28.9749 0.955078 28.9749C1.81885 33.4212 3.9166 37.5636 6.99029 40.8955L7.00151 40.8843C7.45023 40.2539 7.86529 39.5898 8.25791 38.9144C8.34766 38.7681 8.42618 38.6217 8.50471 38.4754C8.8749 37.8 9.22265 37.1133 9.54797 36.4154C9.59284 36.3141 9.63771 36.2016 9.68258 36.089C9.96303 35.4361 10.2098 34.772 10.4454 34.0966C10.4903 33.9615 10.5464 33.8264 10.5912 33.6914C10.8268 32.9484 11.0287 32.1942 11.2082 31.4288C11.2194 31.3612 11.2306 31.2937 11.2531 31.2374C11.197 31.2149 11.1297 31.1811 11.0736 31.1586C10.3332 30.8322 9.60406 30.5508 8.8749 30.3031Z" fill="#1AB67E"/>
<path d="M3.61351 20.3859C4.36511 20.262 5.11671 20.1157 5.85709 19.9243C5.96927 19.8906 6.08145 19.8568 6.19362 19.823C6.87792 19.6317 7.55099 19.4178 8.22406 19.1814C8.35868 19.1364 8.49329 19.0914 8.6279 19.0351C9.35707 18.7537 10.075 18.4497 10.7817 18.1008C10.8378 18.0783 10.8939 18.0445 10.95 18.0107C10.9388 17.9432 10.9164 17.8869 10.9051 17.8194C10.7032 17.0652 10.4676 16.311 10.1984 15.5793C10.1535 15.4442 10.0974 15.3092 10.0414 15.1741C9.78335 14.5099 9.5029 13.8571 9.20002 13.2154C9.15514 13.1141 9.09905 13.0016 9.05418 12.9003C8.70643 12.2136 8.33624 11.5382 7.9324 10.8853C7.85387 10.739 7.76413 10.5927 7.67438 10.4576C7.24811 9.79345 6.81061 9.16308 6.33946 8.54397L6.32824 8.53271C3.6696 11.6395 1.84109 15.3542 1.01097 19.3615C0.921223 19.7893 0.842698 20.2283 0.775391 20.701C0.786609 20.701 0.797826 20.701 0.809044 20.701C1.57186 20.6673 2.34589 20.5772 3.10871 20.4647C3.26576 20.4309 3.44525 20.4084 3.61351 20.3859Z" fill="#1AB67E"/>
<path d="M42.8966 13.5072C42.1675 13.7661 41.4383 13.9913 40.6867 14.1939C40.5858 14.2164 40.4736 14.2502 40.3726 14.2839C39.5537 14.4866 38.7236 14.6554 37.8822 14.7905C37.6915 14.8243 37.5121 14.8468 37.3213 14.8693C36.4912 14.9818 35.6611 15.0832 34.8198 15.1282C34.7973 15.1282 34.7861 15.1282 34.7637 15.1282C34.831 15.3195 34.8871 15.5109 34.9544 15.691C35.0217 15.8824 35.1002 16.0737 35.1787 16.2538C35.4816 17.008 35.8069 17.751 36.1659 18.4601C36.5249 19.1693 36.9512 19.8784 37.3774 20.5651C37.4896 20.7452 37.6018 20.9253 37.7252 21.0941C37.8374 21.263 37.972 21.4318 38.0954 21.6007C38.1066 21.5782 38.129 21.5669 38.1515 21.5444C38.6787 20.9028 39.2284 20.2949 39.8005 19.7096C39.9351 19.5633 40.0697 19.4282 40.2156 19.2931C40.8101 18.6965 41.4271 18.1337 42.0777 17.5934C42.1675 17.5146 42.2684 17.447 42.3582 17.3795C42.9415 16.9067 43.5473 16.4565 44.1755 16.0287C44.3213 15.9274 44.4671 15.8261 44.613 15.7248C45.3085 15.2745 46.0152 14.8468 46.7331 14.4528C46.778 14.4303 46.8229 14.3965 46.8678 14.374C46.5424 13.6536 46.1947 12.9557 45.8133 12.2803C45.7684 12.3028 45.7123 12.314 45.6674 12.3366C44.9159 12.6968 44.153 13.0232 43.3678 13.3159C43.2107 13.3947 43.0537 13.451 42.8966 13.5072Z" fill="#1AB67E"/>
<path d="M33.227 3.99588C33.2157 4.16473 33.2045 4.34483 33.1933 4.51368C33.1484 5.29038 33.1372 6.05583 33.1597 6.83253C33.1597 6.95635 33.1709 7.06892 33.1821 7.19274C33.2157 7.9019 33.2831 8.62232 33.3728 9.34274C33.3952 9.48908 33.4064 9.62415 33.4289 9.77049C33.5411 10.5472 33.6869 11.3239 33.8776 12.1006C33.8888 12.1681 33.9113 12.2244 33.9225 12.292C33.9898 12.292 34.0571 12.292 34.1244 12.292C34.9209 12.2582 35.7061 12.2019 36.4801 12.1119C36.6148 12.1006 36.7494 12.0668 36.884 12.0556C37.6019 11.9543 38.3087 11.8304 39.0154 11.6728C39.1276 11.6503 39.2397 11.6278 39.3519 11.6053C40.1035 11.4252 40.8551 11.2001 41.5843 10.9637C41.7413 10.9074 41.9096 10.8511 42.0666 10.7948C42.807 10.5247 43.5362 10.2433 44.2429 9.90557C44.2541 9.90557 44.2541 9.89431 44.2653 9.89431C41.5282 6.17965 37.7926 3.32048 33.5298 1.66577C33.5298 1.67703 33.5298 1.67703 33.5298 1.68828C33.3728 2.43122 33.2831 3.21918 33.227 3.99588Z" fill="#1AB67E"/>
<path d="M24.9953 11.0985C26.5546 11.5826 28.1475 11.909 29.7629 12.1004C29.9648 12.1229 30.1667 12.1454 30.3687 12.1679C30.5594 12.1904 30.7613 12.1904 30.952 12.2017C30.952 12.1792 30.9408 12.1567 30.9408 12.1342C30.7613 11.3124 30.6379 10.4907 30.5369 9.66897C30.5145 9.47761 30.492 9.28625 30.4696 9.09488C30.3799 8.25064 30.3238 7.4064 30.3013 6.56216C30.3013 6.43834 30.3013 6.31452 30.3013 6.19069C30.2901 5.43651 30.3238 4.68232 30.3799 3.92813C30.3911 3.74802 30.4023 3.56792 30.4135 3.38781C30.492 2.56609 30.593 1.74436 30.7501 0.922629C30.7613 0.866346 30.7613 0.810064 30.7725 0.753781C29.9985 0.551163 29.2693 0.404828 28.484 0.281006C28.4728 0.337289 28.4504 0.382315 28.4392 0.438598C28.2597 1.24907 28.0353 2.04828 27.7773 2.83624C27.7212 3.00509 27.6651 3.16268 27.6091 3.33153C27.3623 4.05195 27.093 4.76111 26.7789 5.45902C26.7341 5.56033 26.6892 5.67289 26.6443 5.7742C26.2966 6.53965 25.9152 7.29384 25.5001 8.02551C25.4103 8.19436 25.3094 8.36321 25.2084 8.53206C24.7934 9.25248 24.3446 9.96164 23.8623 10.6483C23.8511 10.6595 23.8398 10.6821 23.8398 10.6933C24.0305 10.7609 24.2325 10.8509 24.4232 10.9072C24.6139 10.9747 24.8046 11.031 24.9953 11.0985Z" fill="#1AB67E"/>
<path d="M42.5928 37.2032C42.4358 37.1582 42.2675 37.1019 42.1105 37.0568C41.3701 36.843 40.6297 36.6516 39.8669 36.5053C39.7547 36.4828 39.6425 36.4715 39.5191 36.449C38.8236 36.3252 38.1281 36.2239 37.4102 36.1563C37.2643 36.1451 37.1185 36.1226 36.9727 36.1113C36.1986 36.0438 35.4246 36.0212 34.6506 36.0212C34.5833 36.0212 34.516 36.0212 34.4374 36.0212C34.4262 36.0888 34.415 36.1563 34.3926 36.2239C34.258 36.9893 34.1458 37.766 34.0673 38.5427C34.056 38.689 34.0448 38.8354 34.0336 38.9817C33.9775 39.6909 33.9551 40.4 33.9551 41.1092C33.9551 41.2218 33.9551 41.3456 33.9551 41.4582C33.9663 42.2349 34.0224 43.0003 34.1009 43.7657C34.1233 43.9346 34.1346 44.1034 34.157 44.2723C34.258 45.049 34.3701 45.8144 34.5384 46.5686C34.5384 46.5799 34.5384 46.5799 34.5384 46.5911C38.6778 44.7451 42.2339 41.7621 44.7691 38.0249C44.7691 38.0249 44.7579 38.0249 44.7579 38.0136C44.0736 37.6872 43.3444 37.4396 42.5928 37.2032Z" fill="#1AB67E"/>
<path d="M47.889 17.0879C47.8777 17.0879 47.8777 17.0991 47.8665 17.0991C47.1935 17.4706 46.5316 17.8871 45.8922 18.3261C45.7463 18.4274 45.6117 18.5175 45.4659 18.6188C44.8377 19.0578 44.2319 19.5306 43.6486 20.0259C43.5589 20.1046 43.4803 20.1834 43.3906 20.2622C42.8521 20.735 42.3361 21.219 41.8425 21.7368C41.7416 21.8382 41.6406 21.9395 41.5397 22.0408C41.0012 22.6036 40.4964 23.2002 40.0028 23.8193C39.9579 23.8643 39.9243 23.9206 39.8906 23.9769C39.9355 24.0332 39.9804 24.0782 40.0252 24.1345C40.5413 24.7311 41.0797 25.2939 41.6406 25.8342C41.7416 25.9355 41.8425 26.0256 41.9435 26.1156C42.4707 26.6109 43.0204 27.0837 43.5813 27.5227C43.671 27.5903 43.7496 27.6578 43.8281 27.7253C44.4451 28.1981 45.0845 28.6371 45.7351 29.0536C45.8697 29.1437 46.0156 29.2225 46.1502 29.3125C46.8233 29.7177 47.4963 30.1117 48.2031 30.4494H48.2143C48.3152 30.0554 48.405 29.684 48.4835 29.3012C49.3361 25.2489 49.1229 21.0502 47.889 17.0879Z" fill="#1AB67E"/>
<path d="M44.9958 31.9687C44.85 31.8786 44.693 31.7886 44.5471 31.6873C43.9077 31.2933 43.2795 30.8655 42.6625 30.4153C42.5728 30.3477 42.4718 30.2914 42.3821 30.2239C41.709 29.7174 41.0584 29.177 40.4302 28.6142C40.2843 28.4904 40.1497 28.3553 40.0151 28.2315C39.4093 27.6687 38.8148 27.0721 38.2539 26.453C38.2427 26.4417 38.2315 26.4304 38.2202 26.4192C38.1081 26.5993 37.9847 26.7681 37.8837 26.9482C37.7715 27.1284 37.6706 27.3197 37.5584 27.4998C37.1545 28.209 36.7731 28.9407 36.4478 29.6723C36.1225 30.404 35.8308 31.1695 35.5616 31.9462C35.4943 32.1488 35.427 32.3401 35.3597 32.5428C35.2924 32.7454 35.2475 32.948 35.1914 33.1506C35.2138 33.1506 35.2363 33.1506 35.2475 33.1506C36.0552 33.1619 36.8629 33.2181 37.6593 33.2969C37.8725 33.3195 38.0744 33.342 38.2763 33.3645C39.0952 33.4658 39.9029 33.5896 40.7106 33.7585C40.733 33.7585 40.7555 33.7585 40.7779 33.7697C40.8452 33.781 40.9013 33.8035 40.9686 33.826C41.7427 33.9948 42.5055 34.1975 43.2571 34.4339C43.4366 34.4901 43.616 34.5352 43.7843 34.5914C44.5808 34.8503 45.366 35.143 46.1288 35.4695C46.1737 35.492 46.2298 35.5032 46.2859 35.5257C46.6785 34.7715 47.0263 34.0061 47.3292 33.2294C47.2843 33.2069 47.2282 33.1731 47.1833 33.1506C46.4317 32.7791 45.7138 32.3964 44.9958 31.9687Z" fill="#1AB67E"/>
<path d="M31.4111 44.9808C31.3886 44.8007 31.3662 44.6318 31.3437 44.4517C31.254 43.7088 31.1867 42.9546 31.1643 42.2004C31.1643 42.0766 31.153 41.964 31.1418 41.8402C31.1194 41.0072 31.1418 40.163 31.1867 39.3187C31.1979 39.1161 31.2091 38.9248 31.2316 38.7334C31.2989 37.9117 31.3886 37.09 31.512 36.2682C31.512 36.2457 31.512 36.2232 31.5232 36.2007C31.3213 36.2232 31.1082 36.2345 30.895 36.257C30.6819 36.2907 30.48 36.3133 30.2668 36.347C29.4591 36.4708 28.6627 36.6284 27.8886 36.8198C27.1146 37.0224 26.3294 37.2701 25.5553 37.5402C25.3646 37.6078 25.1627 37.6753 24.972 37.7541C24.7701 37.8329 24.5794 37.9229 24.3887 38.0017C24.3999 38.013 24.4111 38.0355 24.4223 38.058C24.9271 38.7222 25.3871 39.3975 25.8358 40.0954C25.948 40.2643 26.0489 40.4331 26.1499 40.602C26.5874 41.3224 27.0024 42.0428 27.3726 42.797C27.4287 42.9096 27.4736 43.0222 27.5297 43.1235C27.855 43.7989 28.1579 44.4855 28.4271 45.1834C28.4944 45.3523 28.5617 45.5211 28.6178 45.6787C28.9095 46.4554 29.1563 47.2321 29.3694 48.0313C29.3806 48.0876 29.4031 48.1326 29.4255 48.1889C30.2556 48.0313 31.0633 47.8174 31.871 47.5698C31.8598 47.5135 31.8486 47.4572 31.8373 47.4122C31.6691 46.613 31.5232 45.8025 31.4111 44.9808Z" fill="#1AB67E"/>
<path d="M15.0772 40.2649C15.7166 39.7246 16.3897 39.218 17.074 38.734C17.2311 38.6215 17.3993 38.5089 17.5564 38.4076C18.2407 37.9461 18.9362 37.5071 19.6541 37.0906C19.6766 37.0793 19.6878 37.068 19.7102 37.0568C19.5644 36.9105 19.4185 36.7416 19.2727 36.5953C19.1269 36.4489 18.9698 36.3139 18.824 36.1675C18.2182 35.616 17.6012 35.0756 16.9618 34.5804C16.3336 34.0963 15.6493 33.6461 14.9651 33.2071C14.7856 33.0945 14.6061 32.9819 14.4154 32.8694C14.2359 32.768 14.0452 32.6667 13.8657 32.5654C13.8657 32.5879 13.8545 32.6105 13.8433 32.633C13.6413 33.4434 13.4058 34.2314 13.1365 35.0081C13.0692 35.1882 13.0131 35.3796 12.9458 35.5597C12.6542 36.3589 12.3513 37.1356 11.9923 37.901C11.9474 38.0023 11.8914 38.1036 11.8465 38.205C11.5212 38.8916 11.1622 39.567 10.7808 40.2199C10.691 40.3662 10.6125 40.5238 10.5228 40.6701C10.0965 41.3793 9.63656 42.066 9.1542 42.7301C9.12054 42.7751 9.09811 42.8201 9.06445 42.8652C9.70387 43.4055 10.3769 43.9233 11.0612 44.3961C11.0949 44.351 11.1285 44.3173 11.1622 44.2722C11.6782 43.6306 12.2167 43.0002 12.7888 42.4036C12.9122 42.2798 13.0356 42.156 13.159 42.0322C13.6862 41.4919 14.2359 40.9741 14.808 40.4788C14.8977 40.4225 14.9875 40.3437 15.0772 40.2649Z" fill="#1AB67E"/>
<path d="M18.3398 12.7645C18.4857 12.6181 18.6315 12.4718 18.7773 12.3142C18.9232 12.1679 19.0578 11.999 19.1924 11.8414C19.17 11.8302 19.1475 11.8189 19.1251 11.7964C18.3959 11.425 17.6892 11.0085 16.9937 10.5807C16.8254 10.4794 16.6571 10.3668 16.4889 10.2655C15.7822 9.81527 15.0866 9.33123 14.436 8.82469C14.335 8.74589 14.2453 8.6671 14.1556 8.5883C13.5722 8.11553 13.0001 7.6315 12.4617 7.11369C12.327 7.00113 12.1924 6.87731 12.0578 6.75348C11.4633 6.16814 10.9024 5.57155 10.3639 4.95244C10.3303 4.90741 10.2854 4.87364 10.2517 4.82861C9.58989 5.33516 8.95047 5.87547 8.32227 6.44956C8.35592 6.49458 8.38957 6.55087 8.42323 6.59589C8.92803 7.23752 9.4104 7.90165 9.85912 8.5883C9.96008 8.73464 10.061 8.89223 10.162 9.04982C10.5546 9.68019 10.936 10.3218 11.2838 10.9859C11.3399 11.0985 11.4072 11.1998 11.4633 11.3124C11.8447 12.0553 12.1812 12.8208 12.5065 13.5975C12.5851 13.7776 12.6524 13.9689 12.7197 14.149C13.0113 14.9145 13.2918 15.6912 13.5161 16.4904C13.5274 16.5129 13.5274 16.5354 13.5386 16.5579C13.7181 16.4454 13.9088 16.3441 14.077 16.2315C14.2453 16.1189 14.4248 16.0064 14.5931 15.8825C15.2661 15.421 15.928 14.937 16.545 14.4192C17.162 13.9127 17.7565 13.3498 18.3398 12.7645Z" fill="#1AB67E"/>
<path d="M25.8353 46.3657C25.768 46.2081 25.7119 46.0392 25.6446 45.8816C25.3529 45.1725 25.0388 44.4746 24.6799 43.7879C24.6238 43.6866 24.5677 43.5853 24.5116 43.484C24.1751 42.8536 23.8161 42.2458 23.4235 41.6379C23.3449 41.5141 23.2776 41.4015 23.1991 41.2777C22.7728 40.6248 22.3017 39.9944 21.8081 39.3753C21.7632 39.3303 21.7296 39.274 21.6847 39.229C21.6286 39.2628 21.5725 39.2853 21.5164 39.3191C20.8209 39.6905 20.1478 40.0958 19.4972 40.5123C19.385 40.591 19.2616 40.6698 19.1494 40.7486C18.5549 41.1539 17.9828 41.5704 17.4219 42.0206C17.3322 42.0882 17.2424 42.1557 17.1527 42.2345C16.5581 42.7298 15.986 43.2476 15.4476 43.7879C15.3242 43.9117 15.212 44.0243 15.0886 44.1481C14.5501 44.7109 14.0229 45.2738 13.5405 45.8816L13.5293 45.8929C17.5677 48.0204 22.0324 48.9434 26.5757 48.5832C26.5757 48.5719 26.5757 48.5719 26.5757 48.5607C26.3738 47.829 26.1157 47.0973 25.8353 46.3657Z" fill="#1AB67E"/>
</svg>
