<svg width="332" height="69" viewBox="0 0 332 69" fill="none" xmlns="http://www.w3.org/2000/svg">
<path d="M321.5 26V42.4C321.5 47.3 320.9 49.6 319 52.4C316.6 55.9 312.6 58.1 308.3 58.1C304.8 58.1 302.4 57.1 299 54.1C296.6 56.7 293.3 58.1 289.7 58.1C285.4 58.1 281.4 56 279.1 52.4C277.3 49.8 276.9 47.7 276.9 42.4V26H285.8V43.8C285.8 46.3 285.9 46.7 286.5 47.7C287.3 49 288.7 49.8 290.3 49.8C291.8 49.8 293.2 49 294 47.8C294.6 46.8 294.7 46.4 294.7 44V26.1H303.6V43.9C303.6 46.6 303.6 46.7 304.4 47.9C305.2 49.2 306.6 50 308.2 50C309.8 50 311.2 49.1 312 47.7C312.6 46.5 312.8 45.3 312.7 44V26.1H321.5V26Z" fill="#1AB67E"/>
<path d="M46.9 57.1004V39.1004C46.9 37.1004 46.7999 36.3004 46.2 35.4004C45.5 34.0004 43.8999 33.1004 42.2999 33.1004C40.6999 33.1004 39.3 33.9004 38.4 35.2004C37.6 36.4004 37.5999 36.5004 37.5999 39.2004V57.1004H28.5V39.1004C28.5 36.6004 28.4 36.2004 27.7999 35.2004C27 34.0004 25.5 33.1004 24 33.1004C22.4 33.1004 21 34.0004 20.1 35.2004C19.5 36.1004 19.4 36.6004 19.4 39.1004V57.1004H10.2V40.6004C10.2 35.3004 10.6 33.2004 12.4 30.6004C14.8 27.0004 18.9 24.9004 23.2 24.9004C26.9 24.9004 29.8999 26.2004 32.5999 28.9004C35.9999 26.0004 38.4999 25.0004 42.0999 25.0004C46.5999 25.0004 50.5999 27.1004 53.0999 30.7004C55 33.5004 55.5999 35.8004 55.5999 40.7004V57.1004H46.9Z" fill="#333333"/>
<path d="M94.7 41.7004C94.7 50.6004 87.1 58.1004 77.9 58.1004C68.6 58.1004 61 50.6004 61 41.5004C61 32.3004 68.6 24.9004 78 24.9004C87.2 24.8004 94.7 32.4004 94.7 41.7004ZM70.1 41.5004C70.1 46.0004 73.5 49.4004 77.9 49.4004C82.1 49.4004 85.6 45.8004 85.6 41.6004C85.6 37.2004 82.1 33.6004 77.9 33.6004C73.5 33.6004 70.1 37.1004 70.1 41.5004Z" fill="#333333"/>
<path d="M118.8 50.4008C117.9 53.0008 117.6 53.8008 116.9 54.9008C115.7 56.6008 113.8 57.6008 111.6 57.6008C107.9 57.6008 106.1 55.8008 104.3 50.4008L96.2999 25.8008H106.2L111.3 44.9008L116.9 25.8008H126.7L118.8 50.4008Z" fill="#333333"/>
<path d="M139.3 17.4004C139.3 20.1004 136.9 22.4004 134.2 22.4004C131.5 22.4004 129.2 20.1004 129.2 17.4004C129.2 14.6004 131.4 12.4004 134.2 12.4004C137.1 12.4004 139.3 14.6004 139.3 17.4004ZM139 57.1004H129.9V25.8004H139V57.1004Z" fill="#333333"/>
<path d="M162.2 57.1002C157.1 57.1002 155.2 56.7002 152.3 55.0002C147.3 52.2002 144.4 47.0002 144.4 41.3002C144.4 35.7002 147.3 30.7002 152.2 27.9002C155.2 26.1002 157.3 25.7002 162.1 25.7002H164.8V34.2002H162.5C160.1 34.2002 158.5 34.5002 157.2 35.2002C155 36.4002 153.6 38.8002 153.6 41.3002C153.6 43.9002 155 46.3002 157.2 47.4002C158.5 48.1002 160 48.4002 162.5 48.4002H164.9V56.9002L162.2 57.1002Z" fill="#333333"/>
<path d="M179.8 17.4004C179.8 20.1004 177.4 22.4004 174.7 22.4004C172 22.4004 169.7 20.1004 169.7 17.4004C169.7 14.6004 171.9 12.4004 174.7 12.4004C177.6 12.4004 179.8 14.6004 179.8 17.4004ZM179.5 57.1004H170.4V25.8004H179.5V57.1004Z" fill="#333333"/>
<path d="M204.8 57.1004V34.2004H199.7V25.9004H204.8V20.6004C204.8 17.1004 206.2 14.0004 208.7 11.6004C211.3 9.20039 213.9 8.40039 218.5 8.40039H220V16.6004H219.1C215.5 16.6004 213.8 18.1004 213.8 21.5004V25.9004H220V34.2004H213.8V57.1004H204.8Z" fill="#1AB67E"/>
<path d="M224.7 57.1004V8.40039H233.6V57.1004H224.7Z" fill="#1AB67E"/>
<path d="M272 41.7004C272 50.6004 264.5 58.1004 255.4 58.1004C246.2 58.1004 238.8 50.7004 238.8 41.5004C238.8 32.3004 246.2 24.9004 255.5 24.9004C264.6 24.8004 272 32.4004 272 41.7004ZM247.8 41.5004C247.8 46.0004 251.2 49.4004 255.5 49.4004C259.7 49.4004 263.1 45.8004 263.1 41.6004C263.1 37.2004 259.7 33.6004 255.5 33.6004C251.1 33.6004 247.8 37.1004 247.8 41.5004Z" fill="#1AB67E"/>
</svg>
